<?xml version="1.0" encoding="UTF-8" standalone="no"?>
<svg
   xmlns:dc="http://purl.org/dc/elements/1.1/"
   xmlns:cc="http://creativecommons.org/ns#"
   xmlns:rdf="http://www.w3.org/1999/02/22-rdf-syntax-ns#"
   xmlns:svg="http://www.w3.org/2000/svg"
   xmlns="http://www.w3.org/2000/svg"
   xmlns:sodipodi="http://sodipodi.sourceforge.net/DTD/sodipodi-0.dtd"
   xmlns:inkscape="http://www.inkscape.org/namespaces/inkscape"
   width="25.200848mm"
   height="10.04154mm"
   viewBox="0 0 25.200848 10.04154"
   version="1.1"
   id="svg1024"
   inkscape:version="1.0 (4035a4fb49, 2020-05-01)"
   sodipodi:docname="sandysoil.svg">
  <defs
     id="defs1018" />
  <sodipodi:namedview
     id="base"
     pagecolor="#ffffff"
     bordercolor="#666666"
     borderopacity="1.0"
     inkscape:pageopacity="0.0"
     inkscape:pageshadow="2"
     inkscape:zoom="2.8"
     inkscape:cx="177.95147"
     inkscape:cy="19.211704"
     inkscape:document-units="mm"
     inkscape:current-layer="layer1"
     inkscape:document-rotation="0"
     showgrid="false"
     inkscape:window-width="1274"
     inkscape:window-height="728"
     inkscape:window-x="76"
     inkscape:window-y="0"
     inkscape:window-maximized="0" />
  <metadata
     id="metadata1021">
    <rdf:RDF>
      <cc:Work
         rdf:about="">
        <dc:format>image/svg+xml</dc:format>
        <dc:type
           rdf:resource="http://purl.org/dc/dcmitype/StillImage" />
        <dc:title />
      </cc:Work>
    </rdf:RDF>
  </metadata>
  <g
     inkscape:label="Layer 1"
     inkscape:groupmode="layer"
     id="layer1"
     transform="translate(-62.994814,-180.94351)">
    <path
       sodipodi:nodetypes="cc"
       id="path24"
       d="m 66.326848,187.25686 c 0.274723,-1.18708 2.899662,-2.32044 5.858632,-4.46485"
       style="fill:none;stroke:#000000;stroke-width:0.264583px;stroke-linecap:round;stroke-linejoin:miter;stroke-opacity:1" />
    <path
       sodipodi:nodetypes="cc"
       id="path26"
       d="m 72.18548,182.79201 c -5.64886,0.57636 -7.373881,1.34132 -7.488654,1.39379"
       style="fill:none;stroke:#000000;stroke-width:0.264583px;stroke-linecap:round;stroke-linejoin:miter;stroke-opacity:1" />
    <path
       id="path32"
       d="m 66.326848,187.25686 c -1.960751,-0.68509 -1.960751,-0.68509 -1.960751,-0.68509"
       style="fill:none;stroke:#000000;stroke-width:0.264583px;stroke-linecap:round;stroke-linejoin:miter;stroke-opacity:1" />
    <path
       sodipodi:nodetypes="cc"
       id="path34"
       d="m 64.696826,184.1858 c -2.42953,0.79532 -1.632956,1.59065 -0.330729,2.38597"
       style="fill:none;stroke:#000000;stroke-width:0.264583px;stroke-linecap:round;stroke-linejoin:miter;stroke-opacity:1" />
    <path
       id="path36"
       d="m 63.208652,185.41512 c -0.02383,1.203 -0.02383,1.203 -0.02383,1.203"
       style="fill:none;stroke:#000000;stroke-width:0.246919px;stroke-linecap:round;stroke-linejoin:miter;stroke-opacity:1" />
    <path
       sodipodi:nodetypes="cccc"
       id="path38"
       d="m 63.184822,186.61812 c 2.606167,1.82946 5.535974,1.95772 5.646119,1.96165 6.341151,0.75933 12.487378,0.12456 14.859189,-0.16536 4.173751,-1.1655 3.709117,-1.41201 4.37035,-1.86626"
       style="fill:none;stroke:#000000;stroke-width:0.264583px;stroke-linecap:round;stroke-linejoin:miter;stroke-opacity:1" />
    <path
       sodipodi:nodetypes="ccc"
       id="path40"
       d="m 80.12298,183.09912 c 1.901472,0.14821 3.618291,0.09 6.236607,1.03943 0.76812,0.44399 1.765598,0.47842 1.700893,2.4096"
       style="fill:none;stroke:#000000;stroke-width:0.264583px;stroke-linecap:round;stroke-linejoin:miter;stroke-opacity:1" />
    <path
       sodipodi:nodetypes="ccc"
       id="path42"
       d="m 66.326848,187.25686 c 6.246773,1.00808 14.008968,0.98417 18.001116,-0.0236 1.656057,-0.17427 2.831081,-0.66923 3.732516,-1.34657"
       style="fill:none;stroke:#000000;stroke-width:0.264583px;stroke-linecap:round;stroke-linejoin:miter;stroke-opacity:1" />
    <path
       sodipodi:nodetypes="cc"
       id="path44"
       d="m 84.327963,187.23326 c -2.265913,-2.37066 -3.537117,-3.34873 -5.244417,-4.93734"
       style="fill:none;stroke:#000000;stroke-width:0.264583px;stroke-linecap:round;stroke-linejoin:miter;stroke-opacity:1" />
    <path
       sodipodi:nodetypes="cc"
       id="path46"
       d="m 72.18548,182.79201 c 3.570497,-2.88773 4.989364,-1.47151 6.898066,-0.49609"
       style="fill:none;stroke:#000000;stroke-width:0.264583px;stroke-linecap:round;stroke-linejoin:miter;stroke-opacity:1" />
    <path
       sodipodi:nodetypes="cc"
       id="path48"
       d="m 66.94106,188.24904 c 7.427361,4.34521 12.164135,2.43189 16.749069,0.16537"
       style="fill:none;stroke:#000000;stroke-width:0.264583px;stroke-linecap:round;stroke-linejoin:miter;stroke-opacity:1" />
    <path
       transform="matrix(0.26458333,0,0,0.26458333,62.994814,180.94351)"
       id="path80"
       d="m 45.492919,26.099637 c -6.536296,-0.09859 -14.43255,-0.56505 -20.982143,-1.239493 -4.32861,-0.445737 -10.942881,-1.318088 -11.098483,-1.463769 -0.179588,-0.168138 0.877553,-1.576172 1.886315,-2.512435 1.476855,-1.370713 3.8797,-3.045385 9.212168,-6.420458 5.406012,-3.42162 9.144743,-5.949995 11.651785,-7.8796992 3.770241,-2.9020045 7.106383,-4.6320699 10.223215,-5.3015801 1.081457,-0.2323021 3.669226,-0.2329793 4.732143,-0.00124 2.134508,0.4653732 3.727392,1.1891847 8.883928,4.0368848 0.294643,0.1627167 0.9375,0.6647462 1.428572,1.115621 0.491071,0.4508749 2.566659,2.3212585 4.612417,4.1564075 5.251255,4.710644 7.297076,6.625197 10.610797,9.929961 2.542486,2.535615 2.879675,2.903531 2.723214,2.971375 -0.29925,0.129759 -3.641881,0.764546 -5.535714,1.051266 -7.850633,1.18856 -17.531255,1.720313 -28.348214,1.557157 z"
       style="fill:#000000;stroke-width:0.0892857" />
  </g>
</svg>
