<?xml version="1.0" encoding="UTF-8" standalone="no"?>
<svg
   xmlns:dc="http://purl.org/dc/elements/1.1/"
   xmlns:cc="http://creativecommons.org/ns#"
   xmlns:rdf="http://www.w3.org/1999/02/22-rdf-syntax-ns#"
   xmlns:svg="http://www.w3.org/2000/svg"
   xmlns="http://www.w3.org/2000/svg"
   xmlns:sodipodi="http://sodipodi.sourceforge.net/DTD/sodipodi-0.dtd"
   xmlns:inkscape="http://www.inkscape.org/namespaces/inkscape"
   sodipodi:docname="saltysoil.svg"
   inkscape:version="1.0 (4035a4fb49, 2020-05-01)"
   id="svg976"
   version="1.1"
   viewBox="0 0 25.200842 10.04154"
   height="10.04154mm"
   width="25.200842mm">
  <defs
     id="defs970" />
  <sodipodi:namedview
     inkscape:window-maximized="0"
     inkscape:window-y="0"
     inkscape:window-x="52"
     inkscape:window-height="728"
     inkscape:window-width="1274"
     showgrid="false"
     inkscape:document-rotation="0"
     inkscape:current-layer="layer1"
     inkscape:document-units="mm"
     inkscape:cy="284.69043"
     inkscape:cx="-323.80493"
     inkscape:zoom="0.35"
     inkscape:pageshadow="2"
     inkscape:pageopacity="0.0"
     borderopacity="1.0"
     bordercolor="#666666"
     pagecolor="#ffffff"
     id="base" />
  <metadata
     id="metadata973">
    <rdf:RDF>
      <cc:Work
         rdf:about="">
        <dc:format>image/svg+xml</dc:format>
        <dc:type
           rdf:resource="http://purl.org/dc/dcmitype/StillImage" />
        <dc:title></dc:title>
      </cc:Work>
    </rdf:RDF>
  </metadata>
  <g
     transform="translate(-191.50672,-72.842325)"
     id="layer1"
     inkscape:groupmode="layer"
     inkscape:label="Layer 1">
    <path
       sodipodi:nodetypes="cc"
       id="path24-4"
       d="m 194.83875,79.155673 c 0.27473,-1.18708 2.89967,-2.32044 5.85864,-4.46485"
       style="fill:none;stroke:#000000;stroke-width:0.264583px;stroke-linecap:round;stroke-linejoin:miter;stroke-opacity:1" />
    <path
       sodipodi:nodetypes="cc"
       id="path26-8"
       d="m 200.69739,74.690823 c -5.64886,0.57636 -7.37389,1.341321 -7.48866,1.39379"
       style="fill:none;stroke:#000000;stroke-width:0.264583px;stroke-linecap:round;stroke-linejoin:miter;stroke-opacity:1" />
    <path
       id="path32-8"
       d="M 194.83875,79.155673 C 192.878,78.470583 192.878,78.470583 192.878,78.470583"
       style="fill:none;stroke:#000000;stroke-width:0.264583px;stroke-linecap:round;stroke-linejoin:miter;stroke-opacity:1" />
    <path
       sodipodi:nodetypes="cc"
       id="path34-1"
       d="m 193.20873,76.084613 c -2.42953,0.79532 -1.63295,1.59065 -0.33073,2.38597"
       style="fill:none;stroke:#000000;stroke-width:0.264583px;stroke-linecap:round;stroke-linejoin:miter;stroke-opacity:1" />
    <path
       id="path36-7"
       d="m 191.72056,77.313933 c -0.0238,1.203 -0.0238,1.203 -0.0238,1.203"
       style="fill:none;stroke:#000000;stroke-width:0.246919px;stroke-linecap:round;stroke-linejoin:miter;stroke-opacity:1" />
    <path
       sodipodi:nodetypes="cccc"
       id="path38-0"
       d="m 191.69673,78.516933 c 2.60616,1.829461 5.53597,1.957721 5.64612,1.96165 6.34115,0.75933 12.48737,0.12456 14.85918,-0.165359 4.17376,-1.165501 3.70912,-1.412011 4.37035,-1.866261"
       style="fill:none;stroke:#000000;stroke-width:0.264583px;stroke-linecap:round;stroke-linejoin:miter;stroke-opacity:1" />
    <path
       sodipodi:nodetypes="ccc"
       id="path40-8"
       d="m 208.63488,74.997933 c 1.90148,0.14821 3.6183,0.09 6.23661,1.03943 0.76812,0.44399 1.7656,0.47842 1.70089,2.4096"
       style="fill:none;stroke:#000000;stroke-width:0.264583px;stroke-linecap:round;stroke-linejoin:miter;stroke-opacity:1" />
    <path
       sodipodi:nodetypes="ccc"
       id="path42-8"
       d="m 194.83875,79.155673 c 6.24678,1.008081 14.00897,0.98417 18.00112,-0.0236 1.65606,-0.17427 2.83108,-0.66923 3.73251,-1.34657"
       style="fill:none;stroke:#000000;stroke-width:0.264583px;stroke-linecap:round;stroke-linejoin:miter;stroke-opacity:1" />
    <path
       sodipodi:nodetypes="cc"
       id="path44-2"
       d="m 212.83987,79.132074 c -2.26592,-2.370661 -3.53712,-3.348731 -5.24442,-4.937341"
       style="fill:none;stroke:#000000;stroke-width:0.264583px;stroke-linecap:round;stroke-linejoin:miter;stroke-opacity:1" />
    <path
       sodipodi:nodetypes="cc"
       id="path46-6"
       d="m 200.69739,74.690823 c 3.57049,-2.88773 4.98936,-1.47151 6.89806,-0.49609"
       style="fill:none;stroke:#000000;stroke-width:0.264583px;stroke-linecap:round;stroke-linejoin:miter;stroke-opacity:1" />
    <path
       sodipodi:nodetypes="cc"
       id="path48-3"
       d="m 195.45297,80.147853 c 7.42736,4.34521 12.16413,2.431891 16.74906,0.165371"
       style="fill:none;stroke:#000000;stroke-width:0.264583px;stroke-linecap:round;stroke-linejoin:miter;stroke-opacity:1" />
    <path
       id="path873-3"
       d="m 202.24485,79.703993 c -0.15592,-0.009 -0.72997,-0.0393 -1.27567,-0.0674 -1.95682,-0.100509 -5.63261,-0.48795 -5.83891,-0.61546 -0.0902,-0.0557 0.12447,-0.35577 0.48506,-0.67813 0.41437,-0.37045 0.9504,-0.74579 2.20029,-1.54074 1.468,-0.93366 2.54368,-1.65864 3.23022,-2.17707 1.39463,-1.05313 2.36632,-1.4788 3.37237,-1.47737 0.73471,10e-4 1.20559,0.16013 2.40813,0.81351 0.65263,0.3546 0.68493,0.38001 2.08007,1.63633 1.50131,1.35194 2.7876,2.569351 3.2996,3.122931 l 0.30973,0.334879 -0.54149,0.10445 c -1.07769,0.20787 -2.31363,0.359741 -3.91802,0.48143 -0.62959,0.0478 -5.21382,0.0971 -5.81138,0.0626 z"
       style="fill:#800000;stroke-width:0.0472469;stroke-linecap:round" />
    <path
       id="path875-4"
       d="m 201.23873,79.636333 c -1.76435,-0.116619 -3.68295,-0.29161 -4.93732,-0.4503 -0.91105,-0.11527 -1.15755,-0.16541 -1.15755,-0.235469 0,-0.111341 0.5188,-0.62836 0.97342,-0.970051 0.24223,-0.18207 1.05248,-0.72578 1.80056,-1.208249 1.33107,-0.858481 2.32458,-1.532641 3.50987,-2.381671 0.65761,-0.47105 1.65401,-0.99217 2.11965,-1.10858 0.99035,-0.24759 1.7575,-0.10153 3.03028,0.57695 0.86174,0.45937 0.96353,0.54021 2.92931,2.32642 1.01016,0.91788 2.92932,2.777141 2.92932,2.83789 0,0.0342 -1.17141,0.24301 -1.98437,0.353811 -1.62751,0.221819 -2.48466,0.26543 -5.57515,0.283689 -1.65011,0.01 -3.28722,-0.001 -3.63802,-0.0245 z"
       style="fill:#800000;stroke-width:0.0472469;stroke-linecap:round" />
    <path
       id="path877-3"
       d="m 200.90192,79.615543 c -1.77809,-0.11706 -4.35939,-0.37241 -5.26197,-0.52052 -0.23387,-0.0384 -0.44117,-0.0702 -0.46065,-0.0706 -0.18196,-0.004 0.27102,-0.52753 0.8438,-0.974779 0.21451,-0.167511 1.09531,-0.761541 1.95733,-1.320081 1.4651,-0.94929 2.05249,-1.34834 3.47091,-2.35797 0.63705,-0.45346 1.64279,-0.97627 2.09602,-1.08958 0.77311,-0.19328 1.49687,-0.12651 2.2777,0.21012 0.55765,0.24042 1.4134,0.71702 1.74048,0.96934 0.87158,0.67237 4.94612,4.50489 4.86843,4.57925 -0.0345,0.0331 -1.71861,0.30684 -2.36005,0.38366 -1.59162,0.19061 -2.17502,0.21713 -5.19717,0.236301 -2.20041,0.014 -3.26001,0.002 -3.97483,-0.0451 z"
       style="fill:#aa0000;stroke-width:0.0472469;stroke-linecap:round" />
    <path
       id="path879-8"
       d="m 201.04974,79.608883 c -0.11694,-0.01 -0.63784,-0.0509 -1.15755,-0.0912 -2.23409,-0.17306 -4.74833,-0.4681 -4.74833,-0.55722 0,-0.0273 0.20869,-0.25285 0.46376,-0.50118 0.3919,-0.381559 0.69223,-0.60159 1.93841,-1.42008 0.81107,-0.532709 1.88336,-1.24938 2.38288,-1.5926 1.86074,-1.27852 2.24374,-1.5258 2.75985,-1.78186 0.77442,-0.38421 1.12574,-0.46875 1.83105,-0.44064 0.45913,0.0183 0.64282,0.048 0.94752,0.15323 0.60657,0.20948 1.67858,0.77831 2.12612,1.12816 0.9729,0.76052 4.85168,4.435301 4.76717,4.51644 -0.0806,0.0774 -2.287,0.40188 -3.56237,0.52395 -0.51153,0.0489 -7.26508,0.10385 -7.74851,0.063 z"
       style="fill:#aa0000;stroke-width:0.0472469;stroke-linecap:round" />
    <path
       style="fill:#550000;stroke-width:0.0472469;stroke-linecap:round"
       d="m 201.67985,79.617108 c -1.24119,-0.03312 -2.51828,-0.131945 -4.55933,-0.352806 -1.36486,-0.147688 -1.96076,-0.242724 -1.96076,-0.312706 0,-0.07225 0.55676,-0.638596 0.85045,-0.865095 0.14292,-0.110223 1.2804,-0.884153 2.52772,-1.719847 1.24732,-0.835695 2.54425,-1.711023 2.88207,-1.945177 0.81646,-0.565923 1.80269,-1.055611 2.33706,-1.16041 0.80499,-0.157877 1.57554,-0.01333 2.55721,0.47969 1.0023,0.503386 1.40929,0.816279 3.16134,2.430449 1.04616,0.963824 2.82856,2.688249 2.88217,2.788409 0.0513,0.09588 0.0538,0.09529 -1.31419,0.307692 -1.11881,0.173713 -1.87644,0.25399 -2.86727,0.303811 -1.18512,0.05959 -4.98001,0.08646 -6.49647,0.04599 z"
       id="path938" />
    <path
       style="fill:#800000;stroke-width:0.0472469;stroke-linecap:round"
       d="m 200.95494,79.569528 c -1.94006,-0.09618 -5.59075,-0.488421 -5.72249,-0.614836 -0.0584,-0.05609 0.50611,-0.631344 0.9195,-0.93693 0.16891,-0.124862 1.56152,-1.071512 3.09468,-2.103673 3.70738,-2.495886 4.12308,-2.705917 5.26683,-2.661086 0.6406,0.02511 1.13771,0.171828 1.88802,0.557234 1.021,0.524457 1.63453,1.026101 4.01907,3.286138 1.38538,1.313045 1.95876,1.891432 1.90668,1.923341 -0.0959,0.05877 -1.90741,0.329493 -2.92249,0.436755 -1.35503,0.143185 -6.46344,0.211532 -8.4498,0.113057 z"
       id="path940" />
    <path
       style="fill:#800000;stroke-width:0.0472469;stroke-linecap:round"
       d="m 200.9593,79.556857 c -0.0844,-0.02222 -0.28473,-0.03013 -0.4451,-0.01754 -0.16425,0.01288 -0.31222,0.0021 -0.33883,-0.02439 -0.0262,-0.02617 -0.18444,-0.03852 -0.35481,-0.02766 -0.1811,0.01154 -0.29647,0.0016 -0.2806,-0.02405 0.0159,-0.02567 -0.0913,-0.03507 -0.26034,-0.02283 -0.17645,0.01275 -0.2765,0.0033 -0.25931,-0.0245 0.0174,-0.02808 -0.0912,-0.03572 -0.28565,-0.02011 -0.20814,0.01669 -0.30357,0.0089 -0.28371,-0.02326 0.0196,-0.03176 -0.0538,-0.04039 -0.21321,-0.02508 -0.14369,0.01381 -0.24315,0.0044 -0.24315,-0.0231 0,-0.02714 -0.0887,-0.03645 -0.21336,-0.02241 -0.1181,0.01331 -0.22631,0.0031 -0.24237,-0.02289 -0.016,-0.02585 -0.13177,-0.03708 -0.25753,-0.025 -0.14503,0.01394 -0.21786,0.0048 -0.19939,-0.02513 0.0186,-0.02999 -0.0507,-0.0381 -0.19058,-0.02233 -0.12083,0.01363 -0.21969,0.0094 -0.21969,-0.0094 0,-0.01876 -0.21793,-0.0603 -0.48428,-0.09228 -0.58739,-0.07053 -0.93313,-0.140808 -0.93313,-0.189677 0,-0.02 0.19705,-0.225549 0.43788,-0.456742 0.31214,-0.299645 0.74629,-0.628025 1.5119,-1.143552 0.59072,-0.397759 1.07403,-0.746797 1.07403,-0.77564 0,-0.02884 0.0129,-0.03959 0.0286,-0.02389 0.0157,0.01572 0.72264,-0.434099 1.57096,-0.999566 1.63852,-1.092192 2.45316,-1.604576 2.94224,-1.85057 0.16558,-0.08328 0.31169,-0.164629 0.32468,-0.180766 0.013,-0.01614 0.0555,-0.03331 0.0945,-0.03816 0.039,-0.0048 0.19844,-0.04422 0.35435,-0.08749 0.23067,-0.06401 0.40672,-0.07325 0.94495,-0.04958 0.82019,0.03607 0.87407,0.04174 0.87407,0.09188 0,0.02228 0.0319,0.02825 0.0709,0.01331 0.039,-0.01495 0.0709,-0.0048 0.0709,0.02252 0,0.02734 0.0264,0.04091 0.0586,0.03016 0.0323,-0.01074 0.0881,0.0099 0.1242,0.04603 0.0361,0.03606 0.0933,0.05491 0.1273,0.04189 0.034,-0.01302 0.0684,-0.0063 0.0766,0.015 0.008,0.02127 0.15307,0.1075 0.32197,0.191596 0.9884,0.492114 1.69138,1.043072 3.54353,2.777235 1.44085,1.349063 2.50048,2.428431 2.44371,2.489214 -0.029,0.03104 -0.1017,0.04708 -0.16154,0.03564 -0.0598,-0.01143 -0.10881,-7.94e-4 -0.10881,0.02376 0,0.02453 -0.0638,0.03521 -0.14174,0.02376 -0.078,-0.01143 -0.14174,-7.94e-4 -0.14174,0.02363 0,0.02445 -0.0638,0.03507 -0.14174,0.02363 -0.0808,-0.01185 -0.14174,5.29e-4 -0.14174,0.02884 0,0.03034 -0.0643,0.03921 -0.16536,0.02281 -0.0909,-0.01476 -0.16537,-0.0071 -0.16537,0.01709 0,0.02416 -0.0773,0.03491 -0.17181,0.02389 -0.11028,-0.01288 -0.16104,-0.0026 -0.14173,0.02862 0.0196,0.03178 -0.0355,0.03988 -0.15892,0.02334 -0.10395,-0.01394 -0.189,-0.006 -0.189,0.01754 0,0.0236 -0.0879,0.03453 -0.19521,0.02429 -0.12147,-0.01159 -0.18426,-7.94e-4 -0.16622,0.02829 0.0183,0.02963 -0.049,0.03811 -0.18277,0.02304 -0.11646,-0.01312 -0.21174,-0.0052 -0.21172,0.0177 10e-6,0.02286 -0.10629,0.03421 -0.23623,0.02522 -0.15666,-0.01085 -0.23627,0.0021 -0.23627,0.03822 0,0.03003 -0.0213,0.0414 -0.0475,0.02527 -0.0261,-0.01614 -0.69051,-0.0059 -1.47647,0.02281 -1.76351,0.06434 -6.49959,0.08651 -6.7089,0.0314 z"
       id="path942" />
  </g>
</svg>
