<?xml version="1.0" encoding="UTF-8" standalone="no"?>
<svg
   xmlns:dc="http://purl.org/dc/elements/1.1/"
   xmlns:cc="http://creativecommons.org/ns#"
   xmlns:rdf="http://www.w3.org/1999/02/22-rdf-syntax-ns#"
   xmlns:svg="http://www.w3.org/2000/svg"
   xmlns="http://www.w3.org/2000/svg"
   xmlns:sodipodi="http://sodipodi.sourceforge.net/DTD/sodipodi-0.dtd"
   xmlns:inkscape="http://www.inkscape.org/namespaces/inkscape"
   width="45.336094mm"
   height="36.98811mm"
   viewBox="0 0 45.336094 36.98811"
   version="1.1"
   id="svg34"
   inkscape:version="1.0 (4035a4fb49, 2020-05-01)"
   sodipodi:docname="sph2.svg">
  <defs
     id="defs28" />
  <sodipodi:namedview
     id="base"
     pagecolor="#ffffff"
     bordercolor="#666666"
     borderopacity="1.0"
     inkscape:pageopacity="0.0"
     inkscape:pageshadow="2"
     inkscape:zoom="1.4"
     inkscape:cx="73.017625"
     inkscape:cy="54.845572"
     inkscape:document-units="mm"
     inkscape:current-layer="layer1"
     inkscape:document-rotation="0"
     showgrid="false"
     inkscape:window-width="1274"
     inkscape:window-height="728"
     inkscape:window-x="52"
     inkscape:window-y="0"
     inkscape:window-maximized="0" />
  <metadata
     id="metadata31">
    <rdf:RDF>
      <cc:Work
         rdf:about="">
        <dc:format>image/svg+xml</dc:format>
        <dc:type
           rdf:resource="http://purl.org/dc/dcmitype/StillImage" />
        <dc:title />
      </cc:Work>
    </rdf:RDF>
  </metadata>
  <g
     inkscape:label="Layer 1"
     inkscape:groupmode="layer"
     id="layer1"
     transform="translate(-160.27243,-190.1488)">
    <path
       sodipodi:nodetypes="ccc"
       id="path949"
       d="m 203.08576,190.22607 c -4.73222,6.57628 -9.08242,13.34357 -14.633,19.51067 -2.71753,-0.53388 -5.56784,-0.75792 -8.55263,-0.66817"
       style="fill:none;stroke:#000000;stroke-width:0.264583px;stroke-linecap:butt;stroke-linejoin:miter;stroke-opacity:1" />
    <path
       sodipodi:nodetypes="ccc"
       id="path951"
       d="m 179.90013,209.06857 c -1.50271,0.27554 -1.86594,1.34872 -2.53906,2.20497 -0.48702,1.56324 -1.57646,2.2831 -2.47224,3.27406"
       style="fill:none;stroke:#000000;stroke-width:0.264583px;stroke-linecap:butt;stroke-linejoin:miter;stroke-opacity:1" />
    <path
       sodipodi:nodetypes="ccc"
       id="path953"
       d="m 174.88883,214.5476 c 0.0204,1.18833 -0.23464,2.30778 -0.56795,3.40768 l 0.43431,2.90656"
       style="fill:none;stroke:#000000;stroke-width:0.264583px;stroke-linecap:butt;stroke-linejoin:miter;stroke-opacity:1" />
    <path
       id="path955"
       d="m 179.96695,213.54533 c -1.16931,3.34087 -1.16931,3.34087 -1.16931,3.34087 0.3675,1.03567 0.3675,1.03567 0.3675,1.03567"
       style="fill:none;stroke:#000000;stroke-width:0.264583px;stroke-linecap:butt;stroke-linejoin:miter;stroke-opacity:1" />
    <path
       id="path957"
       d="m 179.96695,213.54533 c 0.50113,1.50339 0.53454,1.50339 0.53454,1.50339"
       style="fill:none;stroke:#000000;stroke-width:0.264583px;stroke-linecap:butt;stroke-linejoin:miter;stroke-opacity:1" />
    <path
       id="path961"
       d="m 180.50149,215.04872 c -1.70385,1.83748 -1.70385,1.83748 -1.70385,1.83748"
       style="fill:none;stroke:#000000;stroke-width:0.264583px;stroke-linecap:butt;stroke-linejoin:miter;stroke-opacity:1" />
    <path
       sodipodi:nodetypes="cccccccccc"
       id="path963"
       d="m 180.50149,215.04872 0.60135,1.10249 -1.9377,1.77066 -2.20497,1.00227 -1.1359,1.67043 0.4009,1.20271 4.34313,-0.96885 3.842,-2.50565 c 1.62733,-0.37394 3.14269,-0.24407 5.27858,-2.90656 6.13321,-3.8572 10.55715,-8.66399 15.83572,-12.99598"
       style="fill:none;stroke:#000000;stroke-width:0.264583px;stroke-linecap:butt;stroke-linejoin:miter;stroke-opacity:1" />
    <path
       sodipodi:nodetypes="ccc"
       id="path965"
       d="m 176.96017,218.92414 0.26727,-2.87316 c 0.49165,-0.34331 0.98502,-0.6789 1.30293,-1.80406"
       style="fill:none;stroke:#000000;stroke-width:0.264583px;stroke-linecap:butt;stroke-linejoin:miter;stroke-opacity:1" />
    <path
       id="path967"
       d="m 178.53037,214.24692 c 1.60362,0.20045 1.60362,0.20045 1.60362,0.20045"
       style="fill:none;stroke:#000000;stroke-width:0.264583px;stroke-linecap:butt;stroke-linejoin:miter;stroke-opacity:1" />
    <path
       sodipodi:nodetypes="ccc"
       id="path969"
       d="m 178.29651,221.32956 -0.0334,-0.93545 c -0.52383,-0.16697 -1.04892,-0.30132 -1.60361,0.33409"
       style="fill:none;stroke:#000000;stroke-width:0.264583px;stroke-linecap:butt;stroke-linejoin:miter;stroke-opacity:1" />
    <path
       id="path973"
       d="m 176.65949,220.7282 c -0.0356,0.94433 -0.0356,0.94433 -0.0356,0.94433"
       style="fill:none;stroke:#000000;stroke-width:0.264583px;stroke-linecap:butt;stroke-linejoin:miter;stroke-opacity:1" />
    <path
       id="path975"
       d="m 175.82427,220.59457 c -6.35828,1.50318 -6.35828,1.50318 -6.35828,1.50318"
       style="fill:none;stroke:#000000;stroke-width:0.264583px;stroke-linecap:butt;stroke-linejoin:miter;stroke-opacity:1" />
    <path
       id="path977"
       d="m 176.22517,221.79728 c -6.25128,1.32809 -6.25128,1.32809 -6.25128,1.32809"
       style="fill:none;stroke:#000000;stroke-width:0.264583px;stroke-linecap:butt;stroke-linejoin:miter;stroke-opacity:1" />
    <path
       sodipodi:nodetypes="cc"
       id="path979"
       d="m 174.98208,222.12137 c 0.59364,0.38246 0.90716,0.11132 1.12498,-0.38315"
       style="fill:none;stroke:#000000;stroke-width:0.264583px;stroke-linecap:butt;stroke-linejoin:miter;stroke-opacity:1" />
    <path
       id="path981"
       d="m 166.60347,223.65146 c 2.86252,-1.55371 2.86252,-1.55371 2.86252,-1.55371"
       style="fill:none;stroke:#000000;stroke-width:0.264583px;stroke-linecap:butt;stroke-linejoin:miter;stroke-opacity:1" />
    <path
       sodipodi:nodetypes="cc"
       id="path983"
       d="m 169.97389,223.12537 c -1.51234,0.22889 -2.64711,0.67119 -3.13656,1.47824"
       style="fill:none;stroke:#000000;stroke-width:0.264583px;stroke-linecap:butt;stroke-linejoin:miter;stroke-opacity:1" />
    <path
       sodipodi:nodetypes="cccc"
       id="path985"
       d="m 166.60347,223.65146 c -1.38926,0.68625 -2.63725,2.74891 -4.81085,1.10249 -1.8382,0.31099 -1.58151,0.86638 -0.7684,1.48669 3.51587,1.85515 5.28689,-0.0478 5.81311,-1.63703"
       style="fill:none;stroke:#000000;stroke-width:0.264583px;stroke-linecap:butt;stroke-linejoin:miter;stroke-opacity:1" />
    <path
       style="fill:#fefefe;fill-opacity:0.996078;stroke-width:0.264583"
       id="path135"
       d="m 162.64788,226.13874 c -0.0975,-0.0607 -0.18846,-0.13048 -0.27938,-0.20036 0,0 -0.28616,0.18102 -0.28616,0.18102 v 0 c 0.0911,0.0665 0.18057,0.13502 0.2692,0.20465 0,0 0.29634,-0.18531 0.29634,-0.18531 z" />
    <path
       style="fill:none;stroke:#000000;stroke-width:0.264583px;stroke-linecap:butt;stroke-linejoin:miter;stroke-opacity:1"
       d="m 160.7449,225.05254 c 1.92471,-2.45625 3.90376,-1.6179 5.85863,0.0354"
       id="path319"
       sodipodi:nodetypes="cc" />
    <path
       style="fill:none;stroke:#000000;stroke-width:0.264583px;stroke-linecap:butt;stroke-linejoin:miter;stroke-opacity:1"
       d="m 160.43779,225.63131 c 0.66543,0.0517 2.09467,0.2725 3.33381,-0.2592"
       id="path343"
       sodipodi:nodetypes="cc" />
    <path
       transform="matrix(0.26458333,0,0,0.26458333,160.27243,190.1488)"
       id="path150"
       d="m 10.566389,132.50139 c -1.3238854,-0.23368 -2.7227648,-0.88137 -4.2611597,-1.97292 -0.4681943,-0.3322 -0.3641583,-0.3281 -1.6645304,-0.0657 -0.5159338,0.10412 -0.9562972,0.1703 -0.9785852,0.14708 -0.093853,-0.0978 1.7413735,-1.68339 2.6111268,-2.25597 3.1382717,-2.06599 6.3404715,-2.26141 10.1574745,-0.61986 0.719329,0.30936 2.017477,0.98986 2.517722,1.31981 l 0.237694,0.15678 -0.767518,0.56892 c -3.14478,2.33106 -5.480084,3.14055 -7.852224,2.72184 z"
       style="fill:#000000;stroke-width:0.0631345" />
    <path
       transform="matrix(0.26458333,0,0,0.26458333,160.27243,190.1488)"
       id="path152"
       d="M 4.0950991,133.86439 C 2.4789204,133.76165 1.10585,133.61557 1.0600734,133.5415 c -0.0878432,-0.14213 0.067961,-0.46992 0.3439008,-0.72351 0.5144749,-0.4728 1.6172567,-0.90919 3.1646339,-1.25231 1.0527779,-0.23345 0.9477657,-0.24922 1.7150299,0.25748 1.141506,0.75385 2.2407956,1.26447 3.3664055,1.56368 l 0.5357485,0.14242 -0.6935849,0.10441 c -1.6444273,0.24756 -3.7299554,0.33671 -5.397108,0.23072 z"
       style="fill:#000000;stroke-width:0.0631345" />
  </g>
</svg>
