<?xml version="1.0" encoding="UTF-8" standalone="no"?>
<svg
   xmlns:dc="http://purl.org/dc/elements/1.1/"
   xmlns:cc="http://creativecommons.org/ns#"
   xmlns:rdf="http://www.w3.org/1999/02/22-rdf-syntax-ns#"
   xmlns:svg="http://www.w3.org/2000/svg"
   xmlns="http://www.w3.org/2000/svg"
   xmlns:sodipodi="http://sodipodi.sourceforge.net/DTD/sodipodi-0.dtd"
   xmlns:inkscape="http://www.inkscape.org/namespaces/inkscape"
   sodipodi:docname="switch.svg"
   inkscape:version="1.0 (4035a4fb49, 2020-05-01)"
   id="svg8"
   version="1.1"
   viewBox="0 0 1.33408 3.3938024"
   height="3.3938024mm"
   width="1.33408mm">
  <defs
     id="defs2" />
  <sodipodi:namedview
     inkscape:window-maximized="1"
     inkscape:window-y="-8"
     inkscape:window-x="-8"
     inkscape:window-height="705"
     inkscape:window-width="1366"
     showgrid="false"
     inkscape:document-rotation="0"
     inkscape:current-layer="layer1"
     inkscape:document-units="mm"
     inkscape:cy="11.907725"
     inkscape:cx="16.234146"
     inkscape:zoom="15.839192"
     inkscape:pageshadow="2"
     inkscape:pageopacity="0.0"
     borderopacity="1.0"
     bordercolor="#666666"
     pagecolor="#ffffff"
     id="base" />
  <metadata
     id="metadata5">
    <rdf:RDF>
      <cc:Work
         rdf:about="">
        <dc:format>image/svg+xml</dc:format>
        <dc:type
           rdf:resource="http://purl.org/dc/dcmitype/StillImage" />
        <dc:title></dc:title>
      </cc:Work>
    </rdf:RDF>
  </metadata>
  <g
     transform="translate(-114.47601,-191.17728)"
     id="layer1"
     inkscape:groupmode="layer"
     inkscape:label="Layer 1">
    <path
       id="path34"
       d="m 114.60851,191.56543 c 0.51784,2.87315 0.51784,2.87315 0.51784,2.87315"
       style="fill:none;stroke:#000000;stroke-width:0.265;stroke-linecap:round;stroke-linejoin:miter;stroke-miterlimit:4;stroke-dasharray:none;stroke-opacity:1" />
    <path
       id="path42"
       d="m 115.67759,191.59884 c -0.55124,2.83974 -0.55124,2.83974 -0.55124,2.83974"
       style="fill:none;stroke:#000000;stroke-width:0.265;stroke-linecap:round;stroke-linejoin:miter;stroke-miterlimit:4;stroke-dasharray:none;stroke-opacity:1" />
    <path
       sodipodi:nodetypes="cc"
       id="path46"
       d="m 114.60851,191.56543 c 0.71126,-0.5567 0.75597,-0.0469 1.06908,0.0334"
       style="fill:none;stroke:#000000;stroke-width:0.265;stroke-linecap:round;stroke-linejoin:miter;stroke-miterlimit:4;stroke-dasharray:none;stroke-opacity:1" />
    <path
       transform="matrix(0.26458333,0,0,0.26458333,114.47601,191.17728)"
       id="path880"
       d="M 2.4454242,9.1929403 C 2.4229568,9.1061303 2.108073,7.3872926 1.7456824,5.373301 L 1.0867905,1.711498 1.2263768,1.600648 C 1.3031493,1.5396805 1.5615515,1.3905251 1.8006038,1.2691917 2.4228261,0.95337645 2.6684877,0.96544817 3.1439667,1.335204 3.3466806,1.4928443 3.6045199,1.6846155 3.716943,1.7613622 3.8293662,1.8381088 3.9205789,1.9293122 3.9196378,1.9640361 3.9186971,1.9987601 3.595805,3.674982 3.2021005,5.6889737 2.7365624,8.0704298 2.471991,9.2955895 2.4454242,9.1929403 Z"
       style="stroke-width:0.063234;stroke-linecap:round;stroke-miterlimit:4;stroke-dasharray:none;fill:#ffffff" />
  </g>
</svg>
