<?xml version="1.0" encoding="UTF-8" standalone="no"?>
<svg
   xmlns:dc="http://purl.org/dc/elements/1.1/"
   xmlns:cc="http://creativecommons.org/ns#"
   xmlns:rdf="http://www.w3.org/1999/02/22-rdf-syntax-ns#"
   xmlns:svg="http://www.w3.org/2000/svg"
   xmlns="http://www.w3.org/2000/svg"
   xmlns:sodipodi="http://sodipodi.sourceforge.net/DTD/sodipodi-0.dtd"
   xmlns:inkscape="http://www.inkscape.org/namespaces/inkscape"
   sodipodi:docname="waterh.svg"
   inkscape:version="1.0 (4035a4fb49, 2020-05-01)"
   id="svg1813"
   version="1.1"
   viewBox="0 0 33.100197 62.545757"
   height="62.545757mm"
   width="33.100197mm">
  <defs
     id="defs1807" />
  <sodipodi:namedview
     inkscape:window-maximized="0"
     inkscape:window-y="0"
     inkscape:window-x="76"
     inkscape:window-height="728"
     inkscape:window-width="1274"
     showgrid="false"
     inkscape:document-rotation="0"
     inkscape:current-layer="layer1"
     inkscape:document-units="mm"
     inkscape:cy="363.91098"
     inkscape:cx="813.98012"
     inkscape:zoom="0.35"
     inkscape:pageshadow="2"
     inkscape:pageopacity="0.0"
     borderopacity="1.0"
     bordercolor="#666666"
     pagecolor="#ffffff"
     id="base" />
  <metadata
     id="metadata1810">
    <rdf:RDF>
      <cc:Work
         rdf:about="">
        <dc:format>image/svg+xml</dc:format>
        <dc:type
           rdf:resource="http://purl.org/dc/dcmitype/StillImage" />
        <dc:title></dc:title>
      </cc:Work>
    </rdf:RDF>
  </metadata>
  <g
     transform="translate(109.53224,-51.881886)"
     id="layer1"
     inkscape:groupmode="layer"
     inkscape:label="Layer 1">
    <path
       style="fill:none;stroke:#000000;stroke-width:0.264583px;stroke-linecap:butt;stroke-linejoin:miter;stroke-opacity:1"
       d="m -104.48617,56.804134 2.87315,5.612661 c -2.58614,3.839792 -4.37299,9.544611 -6.48129,14.499371 -1.08312,2.869029 -0.0825,4.696181 1.67044,6.147201 5.10901,5.972979 3.3735,4.921139 5.028,7.466838"
       id="path1661"
       sodipodi:nodetypes="ccccc" />
    <path
       style="fill:none;stroke:#000000;stroke-width:0.264583px;stroke-linecap:butt;stroke-linejoin:miter;stroke-opacity:1"
       d="m -87.547962,74.945056 c 0.93268,2.60442 1.71566,5.73278 2.47224,8.953529 l -0.4009,1.603621"
       id="path1665"
       sodipodi:nodetypes="ccc" />
    <path
       style="fill:none;stroke:#000000;stroke-width:0.264583px;stroke-linecap:butt;stroke-linejoin:miter;stroke-opacity:1"
       d="m -87.547962,74.945056 c 0.17979,-1.7273 0.86218,-3.24518 0.0668,-5.378801"
       id="path1669"
       sodipodi:nodetypes="cc" />
    <path
       style="fill:none;stroke:#000000;stroke-width:0.264583px;stroke-linecap:butt;stroke-linejoin:miter;stroke-opacity:1"
       d="m -90.320892,63.920184 c 1.19863,1.419933 2.17529,3.246794 2.83973,5.646071"
       id="path1671"
       sodipodi:nodetypes="cc" />
    <path
       style="fill:none;stroke:#000000;stroke-width:0.264583px;stroke-linecap:butt;stroke-linejoin:miter;stroke-opacity:1"
       d="m -94.697422,78.720237 c 2.30519,3.140419 2.30519,3.17382 2.30519,3.17382 1.00111,1.258649 1.29183,2.67517 1.5034,4.109278"
       id="path1682"
       sodipodi:nodetypes="ccc" />
    <path
       style="fill:none;stroke:#000000;stroke-width:0.264583px;stroke-linecap:butt;stroke-linejoin:miter;stroke-opacity:1"
       d="m -90.888832,86.003335 c 0.11746,2.199441 0.64057,3.72873 1.43657,5.51243 0.76662,1.1109 2.43784,1.469771 2.43884,1.46998 l 1.5368,-0.4009 v -7.082639"
       id="path1684"
       sodipodi:nodetypes="ccccc" />
    <path
       style="fill:none;stroke:#000000;stroke-width:0.264583px;stroke-linecap:butt;stroke-linejoin:miter;stroke-opacity:1"
       d="m -85.481352,92.025066 c -0.66988,-0.275061 -1.32982,-0.560059 -1.78357,-1.05125"
       id="path1688"
       sodipodi:nodetypes="cc" />
    <path
       style="fill:none;stroke:#000000;stroke-width:0.264583px;stroke-linecap:butt;stroke-linejoin:miter;stroke-opacity:1"
       d="m -87.264922,90.973816 c -0.56055,-0.924819 -0.2835,-2.3505 -0.28349,-2.35054 0.39026,-0.699169 0.95526,-1.075081 1.97257,-0.614209"
       id="path1690"
       sodipodi:nodetypes="ccc" />
    <path
       style="fill:none;stroke:#000000;stroke-width:0.264583px;stroke-linecap:butt;stroke-linejoin:miter;stroke-opacity:1"
       d="m -93.494712,51.926466 c 1.49712,4.182821 3.29443,8.492044 3.17382,11.993716"
       id="path1692"
       sodipodi:nodetypes="cc" />
    <path
       style="fill:none;stroke:#000000;stroke-width:0.264583px;stroke-linecap:butt;stroke-linejoin:miter;stroke-opacity:1"
       d="m -93.728572,80.123396 c -2.53906,0.10023 -2.53906,0.10023 -2.53906,0.10023"
       id="path1694" />
    <path
       style="fill:none;stroke:#000000;stroke-width:0.264583px;stroke-linecap:butt;stroke-linejoin:miter;stroke-opacity:1"
       d="m -96.998572,87.278095 c -0.20592,-1.978089 -1.64961,-3.03851 -2.76027,-4.19803 0.60673,-0.854448 1.14489,-1.723099 0.48443,-2.839728 1.32241,0.34127 2.21389,0.215678 3.00678,-0.01669"
       id="path1696"
       sodipodi:nodetypes="cccc" />
    <path
       style="fill:none;stroke:#000000;stroke-width:0.264583px;stroke-linecap:butt;stroke-linejoin:miter;stroke-opacity:1"
       d="m -97.370122,80.407376 c 1.3867,1.334511 2.1658,3.149359 2.72113,4.746411"
       id="path1698"
       sodipodi:nodetypes="cc" />
    <path
       style="fill:none;stroke:#000000;stroke-width:0.264583px;stroke-linecap:butt;stroke-linejoin:miter;stroke-opacity:1"
       d="m -93.728572,84.332896 c -0.3506,3.387619 -1.6854,4.209439 -1.68714,4.2095"
       id="path1700"
       sodipodi:nodetypes="cc" />
    <path
       style="fill:none;stroke:#000000;stroke-width:0.264583px;stroke-linecap:butt;stroke-linejoin:miter;stroke-opacity:1"
       d="m -95.415712,88.542396 -3.21212,2.608601 c -1.502778,2.244428 -3.518958,3.519299 -3.519908,3.5199"
       id="path1704"
       sodipodi:nodetypes="ccc" />
    <path
       style="fill:none;stroke:#000000;stroke-width:0.264583px;stroke-linecap:butt;stroke-linejoin:miter;stroke-opacity:1"
       d="m -102.14774,94.670897 c -0.22836,0.245978 -0.45672,0.543539 -0.68508,1.039439"
       id="path1708"
       sodipodi:nodetypes="cc" />
    <path
       style="fill:none;stroke:#000000;stroke-width:0.264583px;stroke-linecap:butt;stroke-linejoin:miter;stroke-opacity:1"
       d="m -102.83282,95.710336 c -0.7212,0.93921 -1.2395,1.438789 -1.58277,1.55915"
       id="path1710"
       sodipodi:nodetypes="cc" />
    <path
       style="fill:none;stroke:#000000;stroke-width:0.264583px;stroke-linecap:butt;stroke-linejoin:miter;stroke-opacity:1"
       d="m -104.41559,97.269486 c -1.11893,0.542759 -2.1079,1.382559 -2.78758,2.929314"
       id="path1712"
       sodipodi:nodetypes="cc" />
    <path
       style="fill:none;stroke:#000000;stroke-width:0.264583px;stroke-linecap:butt;stroke-linejoin:miter;stroke-opacity:1"
       d="m -107.20317,100.1988 c -1.65364,4.63021 -1.65364,4.63021 -1.65364,4.63021"
       id="path1714" />
    <path
       style="fill:none;stroke:#000000;stroke-width:0.264583px;stroke-linecap:butt;stroke-linejoin:miter;stroke-opacity:1"
       d="m -108.85681,104.82901 c -0.54335,9.59115 -0.54335,9.59115 -0.54335,9.59115"
       id="path1716" />
    <path
       style="fill:none;stroke:#000000;stroke-width:0.264583px;stroke-linecap:butt;stroke-linejoin:miter;stroke-opacity:1"
       d="m -104.7227,99.395607 c -0.88358,1.178603 -1.40135,2.381933 -1.48828,3.614393 0.18899,5.19718 0.18899,5.19718 0.18899,5.19718"
       id="path1718"
       sodipodi:nodetypes="cc" />
    <path
       style="fill:none;stroke:#000000;stroke-width:0.264583px;stroke-linecap:butt;stroke-linejoin:miter;stroke-opacity:1"
       d="m -106.02199,108.20718 c -0.11629,2.07804 -0.26309,4.13701 -0.87407,5.90587"
       id="path1720"
       sodipodi:nodetypes="cc" />
    <path
       style="fill:none;stroke:#000000;stroke-width:0.264583px;stroke-linecap:butt;stroke-linejoin:miter;stroke-opacity:1"
       d="m -104.7227,99.395607 4.724698,-1.346552 c 1.35382,-0.55508 2.32028,-0.206309 3.3073,0.0945 17.977489,2.622215 17.977489,2.622215 17.977489,2.622215"
       id="path1722"
       sodipodi:nodetypes="ccc" />
    <path
       style="fill:none;stroke:#000000;stroke-width:0.264583px;stroke-linecap:butt;stroke-linejoin:miter;stroke-opacity:1"
       d="m -84.760832,77.283996 c 6.838789,9.604119 6.15835,16.437999 6.047619,23.481774"
       id="path1724"
       sodipodi:nodetypes="cc" />
    <path
       style="fill:none;stroke:#000000;stroke-width:0.264583px;stroke-linecap:butt;stroke-linejoin:miter;stroke-opacity:1"
       d="m -84.760832,77.283996 c -0.68783,0.51422 2.29715,-2.96149 6.945311,10.299849"
       id="path1739"
       sodipodi:nodetypes="cc" />
    <path
       style="fill:none;stroke:#000000;stroke-width:0.264583px;stroke-linecap:butt;stroke-linejoin:miter;stroke-opacity:1"
       d="m -78.713213,100.76577 c 1.148371,-0.59998 2.327402,-1.096865 2.12611,-6.236613"
       id="path1741"
       sodipodi:nodetypes="cc" />
    <path
       style="fill:none;stroke:#000000;stroke-width:0.264583px;stroke-linecap:butt;stroke-linejoin:miter;stroke-opacity:1"
       d="m -77.815521,87.583845 c 1.228418,6.945312 1.228418,6.945312 1.228418,6.945312"
       id="path1743" />
    <path
       style="fill:none;stroke:#000000;stroke-width:0.264583px;stroke-linecap:butt;stroke-linejoin:miter;stroke-opacity:1"
       d="m -100.51054,90.346457 c -6.31424,1.687139 -6.26413,1.787369 -6.26413,1.787369 1.79281,2.47895 1.90858,4.86964 2.05197,7.261781"
       id="path1747"
       sodipodi:nodetypes="ccc" />
    <path
       style="fill:none;stroke:#000000;stroke-width:0.264583px;stroke-linecap:butt;stroke-linejoin:miter;stroke-opacity:1"
       d="m -105.17105,100.01828 c -1.22325,-0.0731 -1.77057,-2.221114 -1.77066,-2.221683"
       id="path1749"
       sodipodi:nodetypes="cc" />
    <path
       style="fill:none;stroke:#000000;stroke-width:0.264583px;stroke-linecap:butt;stroke-linejoin:miter;stroke-opacity:1"
       d="m -106.77467,92.133826 c -0.76558,-1.36012 -1.16379,0.129939 -1.1693,0.150339 -0.0183,1.837481 0.30786,3.674951 1.00226,5.512432"
       id="path1751"
       sodipodi:nodetypes="ccc" />
    <path
       style="fill:none;stroke:#000000;stroke-width:0.264583px;stroke-linecap:butt;stroke-linejoin:miter;stroke-opacity:1"
       d="m -84.760832,77.283996 -1.65365,1.25204"
       id="path1753"
       sodipodi:nodetypes="cc" />
    <path
       style="fill:none;stroke:#000000;stroke-width:0.264583px;stroke-linecap:butt;stroke-linejoin:miter;stroke-opacity:1"
       d="m -91.824282,82.896317 c -8.686258,7.45014 -8.686258,7.45014 -8.686258,7.45014"
       id="path1764" />
  </g>
</svg>
