<?xml version="1.0" encoding="UTF-8" standalone="no"?>
<svg
   xmlns:dc="http://purl.org/dc/elements/1.1/"
   xmlns:cc="http://creativecommons.org/ns#"
   xmlns:rdf="http://www.w3.org/1999/02/22-rdf-syntax-ns#"
   xmlns:svg="http://www.w3.org/2000/svg"
   xmlns="http://www.w3.org/2000/svg"
   xmlns:sodipodi="http://sodipodi.sourceforge.net/DTD/sodipodi-0.dtd"
   xmlns:inkscape="http://www.inkscape.org/namespaces/inkscape"
   width="45.336094mm"
   height="36.98811mm"
   viewBox="0 0 45.336094 36.988109"
   version="1.1"
   id="svg1018"
   inkscape:version="1.0 (4035a4fb49, 2020-05-01)"
   sodipodi:docname="sph.svg">
  <defs
     id="defs1012" />
  <sodipodi:namedview
     id="base"
     pagecolor="#ffffff"
     bordercolor="#666666"
     borderopacity="1.0"
     inkscape:pageopacity="0.0"
     inkscape:pageshadow="2"
     inkscape:zoom="1.979899"
     inkscape:cx="227.13495"
     inkscape:cy="85.992561"
     inkscape:document-units="mm"
     inkscape:current-layer="layer1"
     inkscape:document-rotation="0"
     showgrid="false"
     inkscape:window-width="1366"
     inkscape:window-height="705"
     inkscape:window-x="-8"
     inkscape:window-y="-8"
     inkscape:window-maximized="1" />
  <metadata
     id="metadata1015">
    <rdf:RDF>
      <cc:Work
         rdf:about="">
        <dc:format>image/svg+xml</dc:format>
        <dc:type
           rdf:resource="http://purl.org/dc/dcmitype/StillImage" />
        <dc:title />
      </cc:Work>
    </rdf:RDF>
  </metadata>
  <g
     inkscape:label="Layer 1"
     inkscape:groupmode="layer"
     id="layer1"
     transform="translate(-58.974812,-94.360179)">
    <path
       sodipodi:nodetypes="ccc"
       id="path949"
       d="m 101.78814,94.437448 c -4.732222,6.576282 -9.082422,13.343572 -14.633002,19.510672 -2.717525,-0.53388 -5.567833,-0.75792 -8.552626,-0.66817"
       style="fill:none;stroke:#000000;stroke-width:0.264583px;stroke-linecap:butt;stroke-linejoin:miter;stroke-opacity:1" />
    <path
       sodipodi:nodetypes="ccc"
       id="path951"
       d="m 78.602513,113.27995 c -1.502713,0.27554 -1.865942,1.34872 -2.539062,2.20497 -0.48702,1.56324 -1.576455,2.2831 -2.472242,3.27406"
       style="fill:none;stroke:#000000;stroke-width:0.264583px;stroke-linecap:butt;stroke-linejoin:miter;stroke-opacity:1" />
    <path
       sodipodi:nodetypes="ccc"
       id="path953"
       d="m 73.591209,118.75898 c 0.02042,1.18833 -0.234639,2.30778 -0.567948,3.40768 l 0.434313,2.90656"
       style="fill:none;stroke:#000000;stroke-width:0.264583px;stroke-linecap:butt;stroke-linejoin:miter;stroke-opacity:1" />
    <path
       id="path955"
       d="m 78.669331,117.75671 c -1.169306,3.34087 -1.169306,3.34087 -1.169306,3.34087 0.367496,1.03567 0.367496,1.03567 0.367496,1.03567"
       style="fill:none;stroke:#000000;stroke-width:0.264583px;stroke-linecap:butt;stroke-linejoin:miter;stroke-opacity:1" />
    <path
       id="path957"
       d="m 78.669331,117.75671 c 0.501128,1.50339 0.534537,1.50339 0.534537,1.50339"
       style="fill:none;stroke:#000000;stroke-width:0.264583px;stroke-linecap:butt;stroke-linejoin:miter;stroke-opacity:1" />
    <path
       id="path961"
       d="m 79.203868,119.2601 c -1.703843,1.83748 -1.703843,1.83748 -1.703843,1.83748"
       style="fill:none;stroke:#000000;stroke-width:0.264583px;stroke-linecap:butt;stroke-linejoin:miter;stroke-opacity:1" />
    <path
       sodipodi:nodetypes="cccccccccc"
       id="path963"
       d="m 79.203868,119.2601 0.601356,1.10249 -1.937703,1.77066 -2.204973,1.00227 -1.135896,1.67043 0.400904,1.20271 4.34313,-0.96885 3.842,-2.50565 c 1.627321,-0.37394 3.142686,-0.24407 5.278572,-2.90656 6.133211,-3.8572 10.557151,-8.66399 15.835722,-12.99598"
       style="fill:none;stroke:#000000;stroke-width:0.264583px;stroke-linecap:butt;stroke-linejoin:miter;stroke-opacity:1" />
    <path
       sodipodi:nodetypes="ccc"
       id="path965"
       d="m 75.662548,123.13552 0.267269,-2.87316 c 0.491656,-0.34331 0.985026,-0.6789 1.302939,-1.80406"
       style="fill:none;stroke:#000000;stroke-width:0.264583px;stroke-linecap:butt;stroke-linejoin:miter;stroke-opacity:1" />
    <path
       id="path967"
       d="m 77.232756,118.4583 c 1.603617,0.20045 1.603617,0.20045 1.603617,0.20045"
       style="fill:none;stroke:#000000;stroke-width:0.264583px;stroke-linecap:butt;stroke-linejoin:miter;stroke-opacity:1" />
    <path
       sodipodi:nodetypes="ccc"
       id="path969"
       d="m 76.998895,125.54094 -0.03341,-0.93545 c -0.523833,-0.16697 -1.048922,-0.30132 -1.603616,0.33409"
       style="fill:none;stroke:#000000;stroke-width:0.264583px;stroke-linecap:butt;stroke-linejoin:miter;stroke-opacity:1" />
    <path
       id="path973"
       d="m 75.361869,124.93958 c -0.03557,0.94433 -0.03557,0.94433 -0.03557,0.94433"
       style="fill:none;stroke:#000000;stroke-width:0.264583px;stroke-linecap:butt;stroke-linejoin:miter;stroke-opacity:1" />
    <path
       id="path975"
       d="m 74.526652,124.80595 c -6.35828,1.50318 -6.35828,1.50318 -6.35828,1.50318"
       style="fill:none;stroke:#000000;stroke-width:0.264583px;stroke-linecap:butt;stroke-linejoin:miter;stroke-opacity:1" />
    <path
       id="path977"
       d="m 74.927556,126.00866 c -6.251279,1.32809 -6.251279,1.32809 -6.251279,1.32809"
       style="fill:none;stroke:#000000;stroke-width:0.264583px;stroke-linecap:butt;stroke-linejoin:miter;stroke-opacity:1" />
    <path
       sodipodi:nodetypes="cc"
       id="path979"
       d="m 73.684461,126.33275 c 0.593638,0.38246 0.907164,0.11132 1.124977,-0.38315"
       style="fill:none;stroke:#000000;stroke-width:0.264583px;stroke-linecap:butt;stroke-linejoin:miter;stroke-opacity:1" />
    <path
       id="path981"
       d="m 65.305853,127.86284 c 2.862519,-1.55371 2.862519,-1.55371 2.862519,-1.55371"
       style="fill:none;stroke:#000000;stroke-width:0.264583px;stroke-linecap:butt;stroke-linejoin:miter;stroke-opacity:1" />
    <path
       sodipodi:nodetypes="cc"
       id="path983"
       d="m 68.676277,127.33675 c -1.512347,0.22889 -2.647116,0.67119 -3.136563,1.47824"
       style="fill:none;stroke:#000000;stroke-width:0.264583px;stroke-linecap:butt;stroke-linejoin:miter;stroke-opacity:1" />
    <path
       sodipodi:nodetypes="cccc"
       id="path985"
       d="m 65.305853,127.86284 c -1.398952,0.64526 -2.802739,1.28395 -4.810852,1.10249 -1.838202,0.31099 -1.581506,0.86638 -0.768399,1.48669 3.515872,1.85515 5.286889,-0.0478 5.813112,-1.63703"
       style="fill:none;stroke:#000000;stroke-width:0.264583px;stroke-linecap:butt;stroke-linejoin:miter;stroke-opacity:1" />
    <path
       transform="matrix(0.26458333,0,0,0.26458333,58.974812,94.360179)"
       id="path24"
       d="m 9.6996146,138.1804 c -4.0905047,-0.90265 -8.88503195,-3.91515 -8.1427219,-5.11623 0.4827719,-0.78114 4.5686663,-1.61474 7.9146678,-1.61474 5.5159155,0 10.8120415,-1.91717 22.1988715,-8.03588 3.101323,-1.66649 5.867311,-2.5265 15.257047,-4.74373 l 11.468974,-2.7082 0.322112,1.46656 c 0.17716,0.80662 0.243664,1.53784 0.14778,1.62494 -0.09588,0.0871 -6.295205,1.44206 -13.776268,3.01102 -17.389037,3.64691 -19.231114,4.44211 -21.749892,9.38917 -2.79674,5.49301 -7.877729,7.99879 -13.6405704,6.72709 z"
       style="fill:#ffffff;stroke-width:0.505076" />
    <path
       transform="matrix(0.26458333,0,0,0.26458333,58.974812,94.360179)"
       id="path26"
       d="m 7.6616005,137.56799 c -4.213769,-1.51787 -6.77857305,-3.41349 -6.1012696,-4.50939 0.4927308,-0.79725 4.6110138,-1.60917 8.1621717,-1.60917 4.5384174,0 10.7946034,-2.14134 18.8792674,-6.4619 6.056854,-3.23687 6.853472,-3.51186 17.961558,-6.20019 l 11.623609,-2.8131 0.454351,1.43278 c 0.249892,0.78802 0.363534,1.51465 0.252538,1.61472 -0.111,0.10008 -6.33849,1.47837 -13.838872,3.06288 -17.475983,3.69192 -19.204063,4.43749 -21.714769,9.36869 -3.156449,6.1995 -9.055872,8.50029 -15.6785845,6.11468 z"
       style="fill:#ffffff;stroke-width:0.505076" />
  </g>
</svg>
